{
    "asset": {
        "generator": "Khronos glTF Blender I/O v3.6.27",
        "version": "2.0"
    },
    "scene": 0,
    "scenes": [
        {
            "name": "Scene",
            "nodes": [
                0
            ]
        }
    ],
    "nodes": [
        {
            "mesh": 0,
            "name": "vjxscee_LOD0_TIER3_000",
            "rotation": [
                0.7071068286895752,
                0,
                0,
                0.7071068286895752
            ],
            "scale": [
                0.009999999776482582,
                0.009999999776482582,
                0.009999999776482582
            ]
        }
    ],
    "materials": [
        {
            "doubleSided": true,
            "name": "MI_vjxscee",
            "normalTexture": {
                "index": 0
            },
            "occlusionTexture": {
                "index": 1
            },
            "pbrMetallicRoughness": {
                "baseColorTexture": {
                    "index": 2
                },
                "metallicRoughnessTexture": {
                    "index": 1
                }
            }
        }
    ],
    "meshes": [
        {
            "name": "S_vjxscee_tier_3",
            "primitives": [
                {
                    "attributes": {
                        "POSITION": 0,
                        "NORMAL": 1,
                        "TEXCOORD_0": 2,
                        "TANGENT": 3
                    },
                    "indices": 4,
                    "material": 0
                }
            ]
        }
    ],
    "textures": [
        {
            "sampler": 0,
            "source": 0
        },
        {
            "sampler": 0,
            "source": 1
        },
        {
            "sampler": 0,
            "source": 2
        }
    ],
    "images": [
        {
            "mimeType": "image/jpeg",
            "name": "T_vjxscee_1K_N",
            "uri": "Textures/T_vjxscee_1K_N.jpg"
        },
        {
            "mimeType": "image/jpeg",
            "name": "T_vjxscee_1K_ORM",
            "uri": "Textures/T_vjxscee_1K_ORM.jpg",
            "extras": {
                "compression": "mask"
            }
        },
        {
            "mimeType": "image/jpeg",
            "name": "T_vjxscee_1K_B",
            "uri": "Textures/T_vjxscee_1K_B.jpg"
        }
    ],
    "accessors": [
        {
            "bufferView": 0,
            "componentType": 5126,
            "count": 464,
            "max": [
                8.204792022705078,
                8.558337211608887,
                0.14262796938419342
            ],
            "min": [
                -8.15212631225586,
                -7.534285545349121,
                -100.47360229492188
            ],
            "type": "VEC3"
        },
        {
            "bufferView": 1,
            "componentType": 5126,
            "count": 464,
            "type": "VEC3"
        },
        {
            "bufferView": 2,
            "componentType": 5126,
            "count": 464,
            "type": "VEC2"
        },
        {
            "bufferView": 3,
            "componentType": 5126,
            "count": 464,
            "type": "VEC4"
        },
        {
            "bufferView": 4,
            "componentType": 5123,
            "count": 1656,
            "type": "SCALAR"
        }
    ],
    "bufferViews": [
        {
            "buffer": 0,
            "byteLength": 5568,
            "byteOffset": 0,
            "target": 34962
        },
        {
            "buffer": 0,
            "byteLength": 5568,
            "byteOffset": 5568,
            "target": 34962
        },
        {
            "buffer": 0,
            "byteLength": 3712,
            "byteOffset": 11136,
            "target": 34962
        },
        {
            "buffer": 0,
            "byteLength": 7424,
            "byteOffset": 14848,
            "target": 34962
        },
        {
            "buffer": 0,
            "byteLength": 3312,
            "byteOffset": 22272,
            "target": 34963
        }
    ],
    "samplers": [
        {
            "magFilter": 9729,
            "minFilter": 9987
        }
    ],
    "buffers": [
        {
            "byteLength": 25584,
            "uri": "vjxscee_tier_3.bin"
        }
    ]
}