{"asset": {"version": "2.0", "generator": "Houdini GLTF 2.0 Exporter"}, "accessors": [{"bufferView": 0, "componentType": 5123, "count": 19314, "type": "SCALAR", "min": [0], "max": [19313]}, {"bufferView": 1, "componentType": 5126, "count": 19314, "type": "VEC3", "min": [-0.322413594, -0.00179070607, -0.57648921], "max": [0.304475248, 0.999140978, 0.576086521]}, {"bufferView": 2, "componentType": 5126, "count": 19314, "type": "VEC3", "min": [-0.999931037, -0.99970305, -0.999737084], "max": [0.999709964, 0.99332273, 0.997773051]}, {"bufferView": 3, "componentType": 5126, "count": 19314, "type": "VEC2", "min": [0, 0.01953125], "max": [0.999934912, 1]}, {"bufferView": 4, "componentType": 5126, "count": 19314, "type": "VEC4", "min": [-0.00999996345, -0.00999613106, -0.00998318102, 1], "max": [0.00999989454, 0.00999285746, 0.009999617, 1]}], "buffers": [{"uri": "SM_vgledec_tier_3_data.bin", "byteLength": 965700, "name": "main_buffer"}], "bufferViews": [{"buffer": 0, "byteLength": 38628, "target": 34963}, {"buffer": 0, "byteOffset": 38628, "byteLength": 231768, "target": 34962}, {"buffer": 0, "byteOffset": 270396, "byteLength": 231768, "target": 34962}, {"buffer": 0, "byteOffset": 502164, "byteLength": 154512, "target": 34962}, {"buffer": 0, "byteOffset": 656676, "byteLength": 309024, "target": 34962}], "nodes": [{"mesh": 0, "name": "SM_vgledec"}], "meshes": [{"primitives": [{"attributes": {"POSITION": 1, "NORMAL": 2, "TEXCOORD_0": 3, "TANGENT": 4}, "indices": 0, "material": 0}], "name": "SM_vgledec"}], "scenes": [{"nodes": [0], "name": "geo"}], "scene": 0, "images": [{"mimeType": "image/jpg", "name": "T_vgledec_1k_B", "uri": "Textures/T_vgledec_1k_B.jpg"}, {"mimeType": "image/jpg", "name": "T_vgledec_1k_N", "uri": "Textures/T_vgledec_1k_N.jpg"}, {"mimeType": "image/jpg", "name": "T_vgledec_1k_ORM", "uri": "Textures/T_vgledec_1k_ORM.jpg", "extras": {"compression": "mask"}}], "textures": [{"sampler": 0, "source": 0}, {"sampler": 0, "source": 1}, {"sampler": 0, "source": 2}], "materials": [{"name": "MI_vgledec", "alphaMode": "OPAQUE", "doubleSided": true, "pbrMetallicRoughness": {"baseColorTexture": {"index": 0}, "metallicRoughnessTexture": {"index": 2}}, "normalTexture": {"index": 1}, "occlusionTexture": {"index": 2}}], "samplers": [{"magFilter": 9729, "minFilter": 9987}], "extras": {"tier": 3, "asset_type": "3d asset"}}